# xmcd
# 
# Track frame offsets:
#     150
#     17070
#     27300
#     43078
#     58416
#     68165
#     86613
#     101618
#     113164
#     131594
#     146992
#     166285
#     179358
#     193904
#     211837
#     228039
#     246521
#     257383
#     276004
#     288388
# 
# Disc length: 3967
# 
# Revision: 3
# Processed by: cddbd v1.5.2PL0 Copyright (c) Steve Scherf et al.
# Submitted via: fre:ac v1.0.27
# 
DISCID=2a0f7d14
DTITLE=Hazy Osterwald Sextett - Kriminaltango
DYEAR=2004
DGENRE=Schlager
TTITLE0=Kriminal-Tango
TTITLE1=Fanfares
TTITLE2=Der Fahrstuhl nach oben ist besetzt
TTITLE3=Bananen für Nana
TTITLE4=Hello, Hello
TTITLE5=Ich bin ein Clown
TTITLE6=Konjunktur ChaCha
TTITLE7=Die großen Leute
TTITLE8=Das Kind im Mann
TTITLE9=Wenn der Schleier fällt
TTITLE10=Chercher la femme
TTITLE11=Die Rezession
TTITLE12=Ein schönes Wochenend
TTITLE13=Musik, Musik
TTITLE14=Ein Musikant aus Mexico
TTITLE15=Risiko
TTITLE16=Putz den Schmutz von der Welt
TTITLE17=Alles klar
TTITLE18=Mit Musik und guter Laune
TTITLE19=Er war ein Mann
EXTD=YEAR: 2004
EXTT0=
EXTT1=
EXTT2=
EXTT3=
EXTT4=
EXTT5=
EXTT6=
EXTT7=
EXTT8=
EXTT9=
EXTT10=
EXTT11=
EXTT12=
EXTT13=
EXTT14=
EXTT15=
EXTT16=
EXTT17=
EXTT18=
EXTT19=
PLAYORDER=
